<svg width="32" height="33" viewBox="0 0 32 33" fill="none" xmlns="http://www.w3.org/2000/svg">
<path d="M17.5171 5.57904C15.866 5.36174 14.1874 5.4994 12.5937 5.98283C11 6.46627 9.52788 7.28433 8.27569 8.38233C7.0235 9.48033 6.02012 10.833 5.33262 12.3499C4.64512 13.8667 4.28934 15.5129 4.28906 17.1783C4.28906 18.0049 4.73203 18.7766 5.44899 19.1892C5.80222 19.3927 6.20275 19.4999 6.61045 19.4999C7.01814 19.4999 7.41867 19.3927 7.7719 19.1892C8.48734 18.7751 8.93031 18.0049 8.93031 17.1768C8.9291 16.2497 9.11088 15.3314 9.46521 14.4747C9.81955 13.6179 10.3395 12.8395 10.9952 12.1841C11.6509 11.5286 12.4296 11.009 13.2865 10.6551C14.1434 10.3011 15.0617 10.1197 15.9888 10.1213C16.9158 10.1197 17.834 10.3011 18.6907 10.6551C19.5475 11.0091 20.3259 11.5288 20.9814 12.1843C21.6369 12.8397 22.1565 13.6182 22.5105 14.4749C22.8645 15.3316 23.0459 16.2498 23.0443 17.1768C23.0443 20.7053 21.9148 24.1409 19.8248 26.9829C19.7656 27.0635 19.7229 27.1549 19.6991 27.252C19.6752 27.349 19.6708 27.4499 19.6859 27.5487C19.701 27.6475 19.7354 27.7423 19.7872 27.8278C19.839 27.9133 19.9071 27.9878 19.9877 28.0469C20.0684 28.1063 20.16 28.1491 20.2573 28.1729C20.3546 28.1968 20.4556 28.2012 20.5546 28.1859C20.6536 28.1707 20.7486 28.136 20.8342 28.0839C20.9197 28.0319 20.9942 27.9634 21.0533 27.8825C23.3361 24.78 24.5671 21.0287 24.5665 17.1768C24.5637 14.9027 23.6591 12.7226 22.0511 11.1146C20.4431 9.50656 18.2629 8.60193 15.9888 8.59911C13.7145 8.60193 11.534 9.50646 9.92552 11.1144C8.31701 12.7223 7.41171 14.9024 7.40809 17.1768C7.40904 17.3174 7.37275 17.4557 7.3029 17.5777C7.23306 17.6997 7.13216 17.801 7.01046 17.8714C6.88875 17.9418 6.75059 17.9786 6.61001 17.9783C6.46943 17.9779 6.33145 17.9404 6.2101 17.8694C6.08847 17.7994 5.98752 17.6984 5.91748 17.5768C5.84744 17.4551 5.8108 17.3172 5.81128 17.1768C5.81128 13.219 8.1007 9.62661 11.687 7.95522C13.4426 7.13584 15.3956 6.83478 17.3164 7.08746C19.2372 7.34013 21.0459 8.13602 22.5298 9.38153C24.0147 10.6262 25.1132 12.269 25.6963 14.1167C26.2793 15.9645 26.3225 17.9403 25.8208 19.8118C25.7948 19.9084 25.7882 20.0092 25.8012 20.1085C25.8142 20.2077 25.8467 20.3034 25.8967 20.3901C25.9468 20.4768 26.0134 20.5527 26.0929 20.6136C26.1723 20.6745 26.263 20.7191 26.3597 20.7449C26.5543 20.796 26.7612 20.768 26.9352 20.667C27.1092 20.5661 27.2361 20.4003 27.2883 20.206C27.7187 18.5975 27.8008 16.9157 27.5294 15.2729C27.2579 13.6301 26.6389 12.0642 25.7139 10.6797C24.7889 9.29522 23.5791 8.12406 22.1653 7.24446C20.7516 6.36486 19.1664 5.79708 17.5156 5.57904H17.5171ZM15.998 11.5705C14.5523 11.5737 13.1668 12.1496 12.1449 13.1721C11.1229 14.1946 10.5478 15.5804 10.5454 17.0261C10.5468 17.5429 10.446 18.0549 10.2488 18.5326C10.0516 19.0102 9.76184 19.4442 9.39626 19.8095C9.03069 20.1748 8.59649 20.4642 8.11865 20.661C7.64081 20.8579 7.12876 20.9583 6.61197 20.9565C6.41011 20.9565 6.21652 21.0366 6.07378 21.1794C5.93105 21.3221 5.85086 21.5157 5.85086 21.7176C5.85086 21.9194 5.93105 22.113 6.07378 22.2558C6.21652 22.3985 6.41011 22.4787 6.61197 22.4787C8.05762 22.4763 9.44342 21.9011 10.4659 20.8792C11.4885 19.8572 12.0644 18.4717 12.0676 17.0261C12.0658 16.5093 12.1662 15.9973 12.363 15.5194C12.5599 15.0416 12.8493 14.6074 13.2146 14.2418C13.5798 13.8762 14.0138 13.5865 14.4915 13.3893C14.9692 13.1921 15.4812 13.0913 15.998 13.0927C16.5149 13.0913 17.027 13.1921 17.5049 13.3892C17.9827 13.5864 18.4169 13.8761 18.7824 14.2416C19.148 14.6072 19.4377 15.0413 19.6348 15.5192C19.832 15.997 19.9328 16.5092 19.9314 17.0261C19.9317 18.9978 19.4982 20.9454 18.6616 22.7308C17.8251 24.5162 16.6059 26.0958 15.0907 27.3574C15.0138 27.4214 14.9502 27.4999 14.9036 27.5885C14.8571 27.6771 14.8285 27.7741 14.8194 27.8737C14.8104 27.9734 14.8211 28.0739 14.8509 28.1695C14.8807 28.265 14.9291 28.3537 14.9933 28.4305C15.1229 28.5846 15.3083 28.6811 15.5089 28.6987C15.7094 28.7164 15.9088 28.6539 16.0634 28.5249C17.7499 27.1207 19.1068 25.3627 20.0381 23.3755C20.9693 21.3883 21.452 19.2206 21.4521 17.0261C21.4489 15.5807 20.8735 14.1954 19.8517 13.173C18.8299 12.1507 17.4434 11.5745 15.998 11.5705ZM15.998 14.7032C14.7254 14.7032 13.6781 15.7535 13.6781 17.0261C13.6791 18.5792 13.167 20.0892 12.2214 21.3213C11.2759 22.5534 9.94979 23.4387 8.44929 23.8395C8.35258 23.8653 8.2619 23.9099 8.18246 23.9708C8.10301 24.0317 8.03635 24.1076 7.9863 24.1943C7.93625 24.281 7.90378 24.3767 7.89076 24.4759C7.87774 24.5752 7.88442 24.676 7.91042 24.7727C7.96253 24.9676 8.08994 25.1339 8.26464 25.235C8.43934 25.336 8.64702 25.3636 8.84202 25.3115C10.6654 24.8218 12.2765 23.7446 13.4259 22.2468C14.5754 20.749 15.199 18.9141 15.2003 17.0261C15.2003 16.5755 15.5474 16.2254 15.998 16.2254C16.4485 16.2254 16.7971 16.5755 16.7971 17.0261C16.7975 18.9336 16.2617 20.8029 15.2508 22.4205C14.2398 24.0381 12.7945 25.339 11.0797 26.1746C10.8995 26.2637 10.7618 26.4205 10.6968 26.6107C10.6318 26.8009 10.6446 27.0092 10.7326 27.1899C10.8212 27.3711 10.978 27.5097 11.1686 27.5753C11.3593 27.641 11.5682 27.6283 11.7495 27.54C13.7193 26.5787 15.3795 25.0834 16.5411 23.2245C17.7026 21.3657 18.3188 19.218 18.3194 17.0261C18.3194 15.752 17.2705 14.7032 15.998 14.7032Z" fill="white"/>
</svg>
