<svg width="24" height="24" viewBox="0 0 24 24" fill="none" xmlns="http://www.w3.org/2000/svg">
<g id="Search results for Users - Flaticon-12 1" clip-path="url(#clip0_538_37441)">
<g id="Group">
<path id="Vector" d="M20.3813 12.778H18.5589C18.7447 13.2865 18.8461 13.8354 18.8461 14.4074V21.2948C18.8461 21.5333 18.8046 21.7622 18.7291 21.9751H21.7419C22.8673 21.9751 23.7828 21.0596 23.7828 19.9342V16.1795C23.7829 14.3039 22.2569 12.778 20.3813 12.778ZM5.15548 14.4074C5.15548 13.8354 5.25696 13.2866 5.44271 12.778H3.62036C1.74471 12.778 0.21875 14.304 0.21875 16.1796V19.9343C0.21875 21.0596 1.1343 21.9752 2.25972 21.9752H5.27252C5.19498 21.7568 5.15539 21.5267 5.15548 21.2949V14.4074ZM14.0839 11.0058H9.91773C8.04208 11.0058 6.51612 12.5318 6.51612 14.4074V21.2949C6.51612 21.6706 6.82071 21.9752 7.19645 21.9752H16.8052C17.1809 21.9752 17.4855 21.6706 17.4855 21.2949V14.4074C17.4855 12.5318 15.9595 11.0058 14.0839 11.0058ZM12.0008 1.98633C9.7451 1.98633 7.90995 3.82148 7.90995 6.07723C7.90995 7.60729 8.75444 8.94359 10.0016 9.64517C10.5931 9.97793 11.2751 10.1681 12.0008 10.1681C12.7265 10.1681 13.4085 9.97793 14 9.64517C15.2472 8.94359 16.0917 7.60725 16.0917 6.07723C16.0917 3.82152 14.2565 1.98633 12.0008 1.98633ZM4.81734 5.79934C3.13035 5.79934 1.75792 7.17177 1.75792 8.85877C1.75792 10.5458 3.13035 11.9182 4.81734 11.9182C5.23191 11.9185 5.64217 11.8342 6.02293 11.6702C6.66294 11.3947 7.19065 10.9069 7.51718 10.2959C7.75373 9.85387 7.87726 9.36015 7.87677 8.85877C7.87677 7.17182 6.50434 5.79934 4.81734 5.79934ZM19.1843 5.79934C17.4973 5.79934 16.1249 7.17177 16.1249 8.85877C16.1244 9.36015 16.2479 9.85388 16.4844 10.2959C16.811 10.907 17.3387 11.3947 17.9787 11.6702C18.3595 11.8342 18.7697 11.9185 19.1843 11.9182C20.8713 11.9182 22.2437 10.5458 22.2437 8.85877C22.2437 7.17177 20.8713 5.79934 19.1843 5.79934Z" fill="white"/>
</g>
</g>
<defs>
<clipPath id="clip0_538_37441">
<rect width="23.5641" height="23.5641" fill="white" transform="translate(0.21875 0.198975)"/>
</clipPath>
</defs>
</svg>
